<svg xmlns="http://www.w3.org/2000/svg" viewBox="0 0 176 34">
<g transform="translate(1,3) scale(0.0424) translate(-170,-160)"><path d="M 453 270.679 C 436.499 273.577, 419.716 282.358, 411.984 292.139 C 409.687 295.045, 405.772 301.490, 403.285 306.461 C 400.797 311.433, 396.954 318.608, 394.745 322.408 C 392.535 326.207, 383.413 343.307, 374.474 360.408 C 365.534 377.508, 355.529 396.450, 352.240 402.500 C 339.691 425.584, 305.378 491.193, 284.773 531.500 C 272.965 554.600, 257.463 584.075, 250.326 597 C 243.189 609.925, 231.357 631.975, 224.034 646 C 216.711 660.025, 210.324 672.007, 209.840 672.626 C 207.842 675.185, 191.115 709.448, 191.618 709.952 C 192.714 711.050, 271.661 711.098, 285 710.009 C 323.146 706.895, 340.818 697.182, 357.786 670 C 360.018 666.425, 369.395 648.200, 378.625 629.500 C 387.855 610.800, 398.850 589.425, 403.059 582 C 413.555 563.481, 444.988 503.853, 470.269 454.500 C 490.159 415.672, 494.747 406.976, 508.514 382 C 511.697 376.225, 518.209 364.075, 522.985 355 C 527.761 345.925, 539.843 323.125, 549.834 304.334 C 559.825 285.542, 568 269.905, 568 269.584 C 568 269.263, 544.038 269.042, 514.750 269.093 C 472.321 269.167, 459.773 269.490, 453 270.679 M 592.155 276.722 C 578.038 303.285, 538.299 383.145, 536.103 389.368 C 532.271 400.225, 531.403 409.954, 533.319 420.573 C 535.770 434.154, 542.217 445.952, 563.059 475 C 570.063 484.762, 605.217 536.900, 622.749 563.528 C 625.636 567.913, 629.232 573.028, 630.740 574.896 L 633.482 578.292 588.991 577.614 C 564.521 577.241, 528.075 576.891, 508 576.837 C 472.909 576.741, 471.253 576.822, 465.101 578.930 C 450.011 584.099, 435.097 593.995, 429.204 602.750 C 427.075 605.912, 419.572 619.300, 412.531 632.500 C 405.490 645.700, 396.031 663.250, 391.510 671.500 C 386.990 679.750, 380.537 691.762, 377.172 698.193 L 371.053 709.885 375.277 710.496 C 377.600 710.832, 461.175 710.942, 561 710.740 C 727.412 710.403, 743.207 710.231, 751 708.662 C 768.982 705.041, 779.550 699.933, 789.604 690 C 796.150 683.532, 801.720 672.815, 805.195 660 C 808.410 648.143, 808.442 625.610, 805.262 612.903 C 801.997 599.859, 799.804 595.729, 778.976 563.411 C 768.374 546.960, 749.046 516.850, 736.024 496.500 C 723.003 476.150, 705.449 448.925, 697.017 436 C 672.850 398.958, 616.216 310.471, 609.973 300 C 601.910 286.477, 595.314 276.312, 594.124 275.576 C 593.561 275.229, 592.675 275.744, 592.155 276.722"/></g>
<text x="37" y="26" font-family="Arial,Helvetica,sans-serif" font-size="26" font-weight="700" letter-spacing="-0.5">AlgoStudio</text>
</svg>